<?xml version="1.0" standalone="no"?>
<!DOCTYPE svg PUBLIC "-//W3C//DTD SVG 1.1//EN" "http://www.w3.org/Graphics/SVG/1.1/DTD/svg11.dtd" >
<svg xmlns="http://www.w3.org/2000/svg" xmlns:xlink="http://www.w3.org/1999/xlink" version="1.1">
<metadata>
Created by FontForge 20170812 at Mon Dec 31 22:11:06 2018
 By root
Copyright (c) 2018 by Takiyuddin. All rights reserved.
</metadata>
<defs>
<font id="javelyn" horiz-adv-x="833" >
  <font-face 
    font-family="javelyn"
    font-weight="400"
    font-stretch="normal"
    units-per-em="1000"
    panose-1="2 0 5 5 7 0 0 2 0 3"
    ascent="800"
    descent="-200"
    x-height="320.5"
    cap-height="753"
    bbox="-419 -566.048 1863 827"
    underline-thickness="50"
    underline-position="-100"
    unicode-range="U+0020-E02F"
  />
    <missing-glyph />
    <glyph glyph-name="space" unicode=" " horiz-adv-x="200" 
 />
    <glyph glyph-name="e" unicode="e" horiz-adv-x="205" 
d="M219 196q-22 -27 -45 -52t-46.5 -45t-47.5 -32t-48 -12t-40 16.5t-18 44.5q-2 36 6.5 67t24 55.5t35.5 42t42 27.5q31 12 50.5 4t24.5 -26.5t-5.5 -41.5t-38.5 -41q-15 -9 -34.5 -16t-45.5 -9q-5 -17 -5.5 -28.5t-0.5 -25.5q0 -13 4.5 -26.5t12.5 -13.5q21 5 44 21
t45 35.5t41 40t31 35.5zM95 281q-14 -10 -26.5 -29.5t-22.5 -43.5q14 4 30.5 8t30.5 13q11 7 16 19.5t3.5 23t-9 15t-22.5 -5.5z" />
    <glyph glyph-name="f" unicode="f" horiz-adv-x="279" 
d="M299 199q-17 -21 -41 -33t-48.5 -19t-48 -10t-39.5 -4q0 -47 -10 -97.5t-30 -99.5q-15 -38 -30.5 -61.5t-30.5 -37.5t-29 -19t-26 -5q-42 0 -42 58q0 22 6.5 56t17.5 73t25 81.5t29 83.5q-12 15 -13.5 29.5t3.5 26t17 18.5t27 7q71 168 135.5 245.5t112.5 77.5
q21 0 32.5 -11.5t11.5 -38.5q0 -44 -21 -85t-54.5 -75.5t-76.5 -61.5t-87 -43q-4 -6 -6 -12.5t-6 -13.5q9 -6 24.5 -23t19.5 -42q14 0 32.5 1.5t39.5 6.5t43 16t43 29zM197 465q-24 -37 -48.5 -83t-46.5 -97q39 19 70.5 46.5t54 57.5t35 61.5t12.5 59.5q0 14 -3.5 20.5
t-6.5 11.5q-11 -7 -27.5 -25t-39.5 -52zM-17 -151q13 15 28 48t28 73t21 82t8 76q-6 1 -11 2.5t-13 7.5q-11 -30 -25.5 -71t-25.5 -82.5t-15.5 -78t5.5 -57.5z" />
    <glyph glyph-name="g" unicode="g" horiz-adv-x="287" 
d="M300 192q-29 -22 -66.5 -53t-82.5 -68q-33 -103 -72 -193.5t-84 -158t-95 -106.5t-104 -39q-32 0 -50.5 17t-18.5 53q0 40 34.5 94t89 113.5t121.5 119.5t132 112q10 31 18.5 62.5t16.5 62.5q-31 -34 -51 -52.5t-46 -18.5q-27 0 -37.5 18t-9 44t12 54t27 47t37 24
t39.5 -14q18 -18 27 -47q6 7 12 18.5t13.5 22.5t17 18.5t21.5 7.5q15 0 15 -7q-14 -70 -26.5 -115t-23.5 -83q34 26 65.5 50.5t54.5 40.5zM-220 -345q0 -23 10.5 -39.5t27.5 -16.5q23 0 58.5 29.5t68.5 85.5q18 29 36.5 64.5t36.5 74.5t34.5 80.5t30.5 82.5
q-56 -49 -110 -101.5t-97 -101t-69.5 -90t-26.5 -68.5zM43 177q0 -12 10 -5.5t23 20t25.5 28t16.5 18.5q-2 11 -6 23.5t-10 18.5t-14.5 2.5t-19.5 -24.5q-11 -20 -18.5 -45t-6.5 -36z" />
    <glyph glyph-name="h" unicode="h" horiz-adv-x="345" 
d="M-21 -49q-8 -3 -20 -3q-11 0 -13.5 4.5t-2.5 11.5q0 45 20 126.5t52 179.5q34 103 73 191.5t83 153.5t93 102t102 37q32 0 50.5 -17t18.5 -53q0 -59 -37 -121.5t-93.5 -121.5t-123 -111.5t-125.5 -92.5q-9 -29 -26 -86.5t-38 -145.5q32 48 59.5 90.5t51 74t42.5 50.5
t34 22q14 2 22.5 -9t10.5 -31q2 -15 3 -30t3 -27.5t6 -20.5t12 -8q5 0 9.5 2t15 12t30 30t54.5 56l18 -17q-33 -34 -54.5 -55.5t-36.5 -34t-26.5 -17.5t-25.5 -6q-16 -1 -27 8.5t-18 23.5t-10.5 31.5t-3.5 32.5q0 13 -12 2t-30.5 -35t-40.5 -57l-42 -63t-36 -52t-21 -26z
M217 614q-20 -32 -40 -71.5t-39.5 -83t-37 -89t-32.5 -90.5q57 41 113.5 91.5t101 103t72 104t27.5 94.5q0 23 -10.5 39.5t-27.5 16.5q-23 0 -58.5 -29.5t-68.5 -85.5z" />
    <glyph glyph-name="i" unicode="i" horiz-adv-x="168" 
d="M62 297q-17 0 -24.5 10t-7 22t9.5 22t26 10q15 0 23 -10t8 -22t-8.5 -22t-26.5 -10zM3 238q14 18 30.5 24t39.5 -6q-16 -43 -25 -71t-13.5 -47.5t-6.5 -33t-3 -28.5q-2 -24 5 -28.5t19 4t28 27.5t32.5 42.5t32 48.5t26.5 46q0 -1 3 -3l5.5 -5.5t10.5 -9.5
q-26 -45 -49 -81.5t-43.5 -61t-38.5 -36t-35 -6.5q-23 6 -31.5 30.5t-8.5 57.5t6.5 69.5t15.5 67.5z" />
    <glyph glyph-name="j" unicode="j" horiz-adv-x="142" 
d="M26 313q15 17 31 17q15 0 15 -7q-7 -35 -13 -62t-12 -49.5t-11 -42t-11 -38.5q34 26 64 47.5t53 37.5l16 -25q-29 -22 -68 -52.5t-84 -67.5q-33 -103 -72 -193.5t-84 -158t-95 -106.5t-104 -39q-32 0 -50.5 17t-18.5 53q0 40 34.5 94t89.5 113t122 119t132 112
q4 16 9 33.5t12.5 43t18 62.5t26.5 92zM-365 -345q0 -23 10.5 -39.5t27.5 -16.5q23 0 58.5 29.5t68.5 85.5q36 58 71.5 136.5t64.5 160.5q-56 -49 -109.5 -100.5t-96.5 -99.5t-69 -88.5t-26 -67.5zM67 362q-17 0 -24.5 10t-7 22t9.5 22t26 10q15 0 23 -10t8 -22t-8.5 -22
t-26.5 -10z" />
    <glyph glyph-name="k" unicode="k" horiz-adv-x="302" 
d="M-21 -49q-8 -3 -20 -3q-11 0 -13.5 4.5t-2.5 11.5q0 19 5.5 52t15.5 74.5t23 87.5t28 92q34 103 73 191.5t83 153.5t93 102t102 37q32 0 50.5 -17t18.5 -53q0 -59 -37 -121.5t-93.5 -121.5t-123 -111.5t-125.5 -92.5q-8 -24 -20 -65.5t-25 -94.5q19 36 42 72t47 65
t47.5 47.5t43.5 18.5q7 0 9 -1t4 -3q-17 -18 -35 -37q-15 -17 -33 -38.5t-32 -44.5q-3 -29 -4 -69.5t1 -75.5q1 -26 4.5 -39.5t12 -13.5t22 15.5t36.5 48.5q16 24 33.5 50.5t34.5 53t32 50t26 40.5l19 -18q-12 -18 -25.5 -40.5t-28.5 -47t-31 -50t-32 -48.5q-26 -36 -50 -59
t-43.5 -27t-33.5 14.5t-19 64.5q-2 18 -3 37t-1 38q-27 -50 -42 -79.5t-32 -46.5q0 -1 -0.5 -1.5t-0.5 -1.5zM217 614q-20 -32 -40 -71.5t-39.5 -83t-37 -89t-32.5 -90.5q57 41 113.5 91.5t101 103t72 104t27.5 94.5q0 23 -10.5 39.5t-27.5 16.5q-23 0 -58.5 -29.5
t-68.5 -85.5z" />
    <glyph glyph-name="l" unicode="l" horiz-adv-x="262" 
d="M15 270q34 103 73 191.5t83 153.5t93 102t102 37q32 0 50.5 -17t18.5 -53q0 -59 -37 -121.5t-93.5 -121.5t-123 -111.5t-125.5 -92.5q-13 -45 -22 -78t-15 -58t-9.5 -43.5t-5.5 -33.5q-14 -88 13.5 -90t87.5 70q24 28 48 59.5t45 60.5t38 53.5t26 38.5l19 -16l-33 -49.5
t-41 -59t-46 -60.5t-48 -55q-38 -38 -71 -54t-55 -6.5t-30 45.5t4 101q6 31 11.5 56.5t12 49.5t14 48.5t16.5 53.5zM217 614q-20 -32 -40 -71.5t-39.5 -83t-37 -89t-32.5 -90.5q57 41 113.5 91.5t101 103t72 104t27.5 94.5q0 23 -10.5 39.5t-27.5 16.5q-23 0 -58.5 -29.5
t-68.5 -85.5z" />
    <glyph glyph-name="m" unicode="m" horiz-adv-x="537" 
d="M10 28q14 21 24.5 37.5t19.5 31t17.5 28t18.5 28.5q20 31 41.5 50.5t39.5 23t29.5 -11t11.5 -49.5q-1 -10 -1.5 -20t-0.5 -21q0 -21 0.5 -33.5t2.5 -23.5q5 6 11 14.5t17 30.5q39 75 65 106.5t45 31.5q21 0 27 -21t8 -46.5t4.5 -46.5t16.5 -21q6 0 16 5t25.5 16.5
t37.5 30.5t51 48l18 -23q-62 -60 -102 -84t-66 -24q-22 0 -33.5 10t-17 24t-6.5 30t-1 28t-2 17t-8 -2q-4 -6 -10 -16t-13 -23t-15 -28t-16 -29q-15 -27 -34 -42.5t-35.5 -15.5t-27.5 17t-11 56v19t1 19q3 23 0.5 31.5t-9 5t-16 -16t-21.5 -31.5q-23 -35 -44.5 -72t-42 -63
t-40 -36t-37.5 8q7 38 17.5 98.5t32.5 148.5q1 6 13 12t24 6q18 0 18 -9q-14 -54 -22.5 -104t-20.5 -99z" />
    <glyph glyph-name="n" unicode="n" horiz-adv-x="339" 
d="M0 224q2 6 10.5 10.5t18 6.5t17 0.5t7.5 -8.5q-18 -68 -30.5 -113.5t-20.5 -81.5l42 76q41 74 66 106t44 32q21 0 27 -21t8 -46.5t4.5 -46.5t16.5 -21q6 0 15.5 4.5t25 16t37.5 30.5t51 48l18 -23q-62 -59 -102 -83t-65 -24q-22 0 -33.5 10t-17 24t-6.5 30t-1 28t-2 17
t-8 -2q-3 -4 -11.5 -18t-20 -33.5t-25.5 -43t-26.5 -45t-23 -40t-16.5 -28.5q-10 -17 -28.5 -20t-32.5 10q7 36 23 98.5t39 150.5z" />
    <glyph glyph-name="o" unicode="o" horiz-adv-x="259" 
d="M273 195q-23 -20 -51.5 -34t-50.5 -19q-11 -25 -26 -43t-35 -32q-24 -17 -49 -24t-46.5 -2.5t-36.5 21t-18 45.5q-2 20 2.5 40t13.5 38t21.5 33t25.5 24q1 37 19 60t42 32t48.5 2t40.5 -30q9 -14 13.5 -31.5t5 -35.5t-2 -35.5t-8.5 -32.5q23 9 42 20.5t36 24.5zM101 319
q-11 -7 -17 -22t-9 -35q9 0 20 -4t11 -9q1 -5 -7.5 -11.5t-20.5 -6.5q5 -20 20.5 -39t37.5 -24q25 59 3 114q-7 16 -17.5 26.5t-20.5 10.5zM121 137q-39 2 -60 20.5t-29 41.5q-10 -17 -16 -41t-5 -41q2 -24 10 -36.5t20 -15t26 5.5t27 24q9 11 16 22.5t11 19.5z" />
    <glyph glyph-name="p" unicode="p" horiz-adv-x="272" 
d="M279 195q-9 -4 -23.5 -9.5t-29 -10.5t-26.5 -9.5t-17 -5.5q-20 -39 -37.5 -58t-36.5 -33q-23 -17 -41 -14.5t-26 15.5t-4.5 32.5t24.5 36.5q15 12 32.5 18.5t41.5 13.5q6 10 12.5 25.5t9.5 31.5t1 31t-11 24q-11 -9 -26.5 -24.5t-32 -34t-32.5 -38t-28 -36.5l-24 -79
q-33 -103 -72 -193.5t-84 -158t-95 -106.5t-104 -39q-32 0 -50.5 17t-18.5 53q0 40 34.5 94t89.5 113t122 119t132 112q4 16 9 33.5t12.5 43t18 62.5t26.5 92q15 17 31 17q15 0 15 -7q-8 -35 -14 -63.5t-14 -57.5q24 33 43 54t33.5 33t25 16.5t16.5 3.5q22 -3 32 -16
t12 -30.5t-1.5 -37.5t-9.5 -36l78 27zM-366 -345q0 -23 10.5 -39.5t27.5 -16.5q23 0 58.5 29.5t68.5 85.5q36 58 71.5 136.5t64.5 160.5q-56 -49 -109.5 -100.5t-96.5 -99.5t-69 -88.5t-26 -67.5zM91 98q8 10 14.5 20t16.5 27q-31 -10 -45 -25q-7 -8 -10.5 -18.5t-2 -16.5
t8 -4.5t18.5 17.5z" />
    <glyph glyph-name="q" unicode="q" horiz-adv-x="316" 
d="M127 41q20 18 47.5 43.5t54.5 51t50.5 47.5t36.5 33l21 -20q-8 -8 -33.5 -31.5t-57 -52t-63 -56.5t-50.5 -45q16 -80 28.5 -164t16.5 -159.5t-3.5 -135t-31.5 -89.5q-23 -28 -48.5 -29t-49.5 19q-42 34 -56 96t-6 142.5t35 175t67 195.5l23 59l13 31q-17 -18 -29.5 -31
t-23.5 -21.5t-21 -13t-23 -4.5q-27 0 -37.5 18t-9 44t12 54t27 47t37 24t39.5 -14q18 -18 27 -47q7 10 18.5 24.5t26 25t29.5 13.5t28 -9q-22 -53 -37 -88l-25.5 -59.5t-18 -41.5t-14.5 -32zM109 -495q17 21 22.5 69t2.5 112t-12 138t-21 147q-30 -81 -52 -164.5t-31 -151.5
q-10 -64 -1 -109.5t27 -59.5q13 -11 31.5 -5t33.5 24zM25 122q0 -12 10 -5.5t23 20t25.5 28t16.5 18.5q-2 11 -6 23.5t-10 18.5t-14.5 2.5t-19.5 -24.5q-11 -20 -18.5 -45t-6.5 -36z" />
    <glyph glyph-name="r" unicode="r" horiz-adv-x="201" 
d="M217 202q-29 -46 -63.5 -95t-68.5 -84q-36 -38 -61 -48t-39 -1t-16 33t8 54q17 52 31 76t22 38q-20 8 -38.5 19.5t-36.5 38.5q-10 15 -13.5 33t0.5 33.5t15 26.5t31 11q23 0 38.5 -16t15.5 -46q0 -15 -5.5 -32.5t-13.5 -31.5q4 -3 12.5 -7t17 -8.5t15 -9t6.5 -8.5
q-7 -17 -15 -37q-7 -17 -16.5 -41.5t-20.5 -52.5q-11 -29 -12 -42t6 -12.5t21.5 13t34.5 35.5q17 19 34.5 41.5t34.5 45.5t32.5 45.5t27.5 42.5zM-31 266q4 -7 13.5 -20t14.5 -17q4 7 7 16.5t4.5 19t1.5 17.5t-1 11q-3 14 -13.5 18.5t-19.5 0.5t-12.5 -16t5.5 -30z" />
    <glyph glyph-name="s" unicode="s" horiz-adv-x="166" 
d="M79 61q0 -46 -12 -80.5t-31 -58t-43.5 -35t-48.5 -11.5q-32 0 -53 26.5t-21 70.5q0 28 12 53t32 46.5t46 40t54 33.5l-7 31q-8 29 -14 56.5t-6 52.5q0 13 5 29.5t14 31.5t22.5 25t30.5 10q11 0 14.5 -4t-3.5 -11q-17 -14 -24 -31.5t-7 -38.5q0 -28 8 -60t16 -66
q32 14 59 25.5t44 19.5l12 -28q-11 -6 -40 -18t-67 -32q4 -20 6.5 -39t1.5 -38zM-78 -17q0 -34 13 -58.5t29 -24.5q9 0 19.5 14t19.5 35.5t15.5 48.5t6.5 53q0 14 -1 29t-3 29q-40 -26 -69.5 -57.5t-29.5 -68.5z" />
    <glyph glyph-name="t" unicode="t" horiz-adv-x="179" 
d="M197 200q-11 -15 -28 -41.5t-36 -55l-37 -55.5t-31 -42q-24 -29 -45.5 -37.5t-36.5 3t-20.5 42t4.5 78.5q7 36 19.5 82t26 92.5t27 87.5t23.5 67q-19 2 -38.5 4.5t-34.5 2.5q-13 0 -20 -3t-15 -11q-4 -4 -7.5 -2t-6.5 6.5t-4 9t1 6.5q9 9 22.5 15t31.5 6q17 0 39.5 -2.5
t42.5 -5.5q6 18 14.5 26.5t32.5 8.5q14 0 14 -7q0 -3 -3.5 -12t-8.5 -23q12 -2 16 -2.5t13 -1.5q13 0 18.5 1t19.5 6q7 0 12 -9t-3 -14q-10 -5 -22 -7t-28 -2q-11 0 -16 1t-20 3l-31 -91q-8 -25 -19.5 -60.5t-22.5 -72.5t-21 -71t-15 -55q-7 -27 -8.5 -47.5t3 -28t17 0.5
t33.5 38q12 16 30 42.5t37.5 54.5t36.5 53t26 38z" />
    <glyph glyph-name="u" unicode="u" horiz-adv-x="316" 
d="M-2 218q7 9 16.5 18t20.5 15t22 6.5t21 -6.5q-17 -43 -27.5 -69.5t-16.5 -44.5t-8.5 -31.5t-2.5 -29.5q0 -21 6.5 -22t17 12t24.5 36.5t28.5 51.5t29.5 58t28 55q1 3 4 9.5t7 13t7 12t5 6.5q6 3 15.5 7t19 5.5t16 -0.5t6.5 -9q-28 -85 -44.5 -144t-24.5 -97
q-6 -31 -4.5 -44.5t9 -12.5t19 14t25.5 35l99 154l23 -16q-11 -17 -23 -37t-25.5 -41.5t-27.5 -42t-28 -37.5q-23 -32 -46 -47.5t-40.5 -12t-26 28t-3.5 72.5q2 17 4.5 36.5t6.5 40.5q-16 -32 -31.5 -60t-29.5 -48.5t-26.5 -31t-23.5 -7.5q-23 6 -32 27.5t-9.5 50.5
t5.5 62.5t15 64.5z" />
    <glyph glyph-name="v" unicode="v" horiz-adv-x="292" 
d="M310 195q-14 -17 -32 -28t-36.5 -13.5t-36 4t-30.5 23.5q-20 -35 -45.5 -69t-44.5 -52q-27 -27 -49.5 -36t-38 -2t-22.5 28.5t-3 55.5q0 1 2 15.5t7 36t12 46t17 45.5t23 35t29 14q6 0 11 -2t5 -5q-29 -90 -42 -141.5t-13 -75.5q0 -16 4 -23q26 21 58.5 66.5t61.5 99.5
q-7 16 -10.5 37t-4 43.5t2.5 44.5t10 42q16 43 40 60t43.5 10.5t28.5 -35t-4 -74.5q-9 -33 -26 -66t-32 -60q14 -34 41 -36t56 33zM173 260q9 19 20.5 47.5t18.5 53.5q5 17 8.5 35t3.5 26q-11 0 -24 -15.5t-20 -33.5q-9 -24 -11 -55.5t4 -57.5z" />
    <glyph glyph-name="w" unicode="w" horiz-adv-x="433" 
d="M451 195q-14 -17 -32 -28t-36.5 -13.5t-36 4t-30.5 23.5q-20 -35 -45.5 -69t-44.5 -52q-27 -27 -49.5 -36t-38 -2t-22.5 28.5t-3 55.5q0 1 1.5 13t5.5 31q-15 -17 -26 -32t-21.5 -25.5t-21.5 -16t-26 -3.5q-13 1 -21.5 16.5t-12 38t-1.5 48.5t9.5 48.5t21 37t32.5 14.5
t16 -10q-16 -43 -23 -72t-9 -47.5t-0.5 -29t3.5 -16.5q13 11 28 29t30 39t28.5 42.5t24.5 38.5q11 20 23.5 34t28.5 14q6 0 11 -2t5 -5q-29 -90 -42 -141.5t-13 -75.5q0 -16 4 -23q26 21 58.5 66.5t61.5 99.5q-7 16 -10.5 37t-4 43.5t2.5 44.5t10 42q16 43 40 60t43.5 10.5
t28.5 -35t-4 -74.5q-9 -33 -26 -66t-32 -60q14 -34 41 -36t56 33zM314 260q9 19 20.5 47.5t18.5 53.5q5 17 8.5 35t3.5 26q-11 0 -24 -15.5t-20 -33.5q-9 -24 -11 -55.5t4 -57.5z" />
    <glyph glyph-name="x" unicode="x" horiz-adv-x="245" 
d="M261 200q-22 -37 -43.5 -70t-43 -58t-42.5 -39.5t-43 -14.5q-26 0 -46 21.5t-32 72.5q-29 -32 -61 -62.5t-64 -40.5q-7 3 -10 11t-1 14q22 9 57 41t71 77q-4 29 -8 68.5t-4 82.5q0 12 12 21t37 9l1 -17t1.5 -39t1.5 -43.5t2 -29.5q24 30 42 52t33.5 36.5t29.5 21t31 6.5
q8 0 17.5 -4.5t9.5 -15.5q0 -5 -12.5 -11t-26.5 -6q-6 0 -12 3q-20 -19 -45 -51t-60 -75q7 -63 18 -90.5t27 -27.5q11 0 27 13.5t35 37t40.5 55t44.5 68.5z" />
    <glyph glyph-name="y" unicode="y" horiz-adv-x="296" 
d="M180 313q15 17 31 17q15 0 15 -7q-7 -35 -13 -62t-12 -49.5t-11 -42t-11 -38.5q34 26 64 47.5t53 37.5l16 -25q-29 -22 -68 -52.5t-84 -67.5q-33 -103 -72 -193.5t-84 -158t-95 -106.5t-104 -39q-32 0 -50.5 17t-18.5 53q0 40 34.5 94t89.5 113t122 119t132 112
q5 19 10.5 40.5t16.5 56.5q-16 -29 -33.5 -56.5t-34 -48t-30.5 -32t-23 -8.5q-24 6 -33.5 24t-10 43t6 55.5t15.5 61.5q7 9 16.5 18t20.5 15t22 6.5t21 -6.5q-17 -43 -27.5 -69.5t-16.5 -44.5t-8.5 -31.5t-2.5 -29.5q0 -21 6.5 -22t17 12t24.5 36.5t28.5 51.5t29.5 58t28 55
q4 9 11.5 23.5t11.5 22.5zM-211 -345q0 -23 10.5 -39.5t27.5 -16.5q23 0 58.5 29.5t68.5 85.5q36 58 71.5 136.5t64.5 160.5q-56 -49 -109.5 -100.5t-96.5 -99.5t-69 -88.5t-26 -67.5z" />
    <glyph glyph-name="z" unicode="z" horiz-adv-x="361" 
d="M374 195q-25 -20 -57.5 -45.5t-83.5 -70.5q6 -46 -12.5 -100.5t-47.5 -106.5q-12 -23 -30 -53.5t-40 -62.5t-47.5 -62.5t-53.5 -53.5q-46 -38 -85.5 -42.5t-62.5 16t-23 60t33 89.5q39 59 118.5 135.5t198.5 174.5q-7 42 -25.5 51t-42.5 2t-50.5 -19.5t-49.5 -12.5
q-7 0 -11.5 3.5t0.5 8.5q7 10 24 32t39 49t46 54.5t45 49.5q-20 1 -40.5 5.5t-37.5 11.5t-29 15.5t-14 19.5q0 8 9.5 15t27.5 7q4 0 11 -6.5t19.5 -15t32 -16t49.5 -10.5q26 21 44.5 27t32.5 6q24 0 30 -16q0 -4 -4.5 -11.5t-13.5 -14.5t-24 -12t-36 -5q-17 -8 -36 -27.5
t-38 -42t-35 -45t-27 -37.5q25 8 47 13.5t41 4t34 -12.5t26 -35q35 28 65 51.5t71 55.5zM117 -140q23 42 41 86.5t23 86.5q-41 -37 -82.5 -77t-79 -79t-68 -75.5t-50.5 -66.5q-26 -39 -26.5 -65t14.5 -36t41 -2.5t54 35.5q19 19 37.5 43t35.5 50.5t32.5 52t27.5 47.5z" />
    <glyph glyph-name="d" unicode="d" horiz-adv-x="328" 
d="M171 90q0 -24 8.5 -29.5t22 1.5t31 24t35 39t33.5 46t27 45q1 -2 19 -17q-53 -91 -99.5 -134.5t-83.5 -35.5q-23 5 -30 29.5t-6 54t7 57.5t9 40q-35 -35 -55 -53t-46 -18q-27 0 -37.5 18t-9 44t12 54t27 47t37 24t39.5 -14q18 -18 27 -47l25 25q34 99 72.5 184.5
t81.5 148t91 98t100 35.5q32 0 50.5 -17t18.5 -53q0 -59 -34.5 -115.5t-88 -108t-117.5 -98t-123 -86.5q-5 -14 -12.5 -38.5t-14.5 -52.5t-12 -54t-5 -43zM364 616q-40 -65 -73.5 -135t-63.5 -160q57 41 111 85.5t95.5 89.5t66.5 90.5t25 88.5q0 23 -10.5 39.5t-27.5 16.5
q-23 0 -56.5 -29.5t-66.5 -85.5zM44 179q0 -12 10 -5.5t23 20t25.5 28t16.5 18.5q-2 11 -6 23.5t-10 18.5t-14.5 2.5t-19.5 -24.5q-11 -20 -18.5 -45t-6.5 -36z" />
    <glyph glyph-name="A" unicode="A" horiz-adv-x="680" 
d="M696 201q-54 -77 -100 -141.5t-82.5 -112t-64.5 -74t-46 -26.5q-17 0 -29 9t-12 36q0 25 6.5 62.5t18.5 83.5t28.5 98t35.5 108q-13 0 -26 0.5t-27 0.5q-44 -67 -87.5 -124t-85.5 -99t-82.5 -65.5t-77.5 -23.5q-5 0 -14 1t-18 3.5t-16 5.5t-7 7q0 8 13 13.5t25 5.5
q11 0 17.5 -4.5t16.5 -4.5q25 0 55.5 21.5t65 59.5t72 90t76.5 114q-38 -1 -73.5 -6t-64 -17.5t-48.5 -33.5t-26 -54q-2 -7 -14 -12.5t-25 -5.5q-8 0 -11.5 3t-3.5 6q9 45 36 73.5t65 44.5t85 22t96 6q58 93 118.5 197t117.5 209q6 11 13.5 24t16 24t17.5 18.5t18 8.5
q19 0 19 -9q-15 -44 -36 -99.5t-44.5 -118t-48.5 -129t-47 -131.5q9 -1 17 -0.5t16 0.5l-6 -25h-38q-18 -54 -34.5 -104t-29 -93.5t-19.5 -78t-7 -57.5q0 -27 14 -27q6 0 26.5 24t53.5 68t77.5 106t98.5 138zM415 271q11 -1 22 -1h22q17 48 35 95.5t35 95.5
q-29 -51 -57.5 -98t-56.5 -92z" />
    <glyph glyph-name="B" unicode="B" horiz-adv-x="733" 
d="M636 246q8 -26 9 -50q5 -58 -14 -110.5t-54.5 -92t-82.5 -63t-98 -23.5q-30 0 -61.5 12t-57.5 39q-31 -38 -69 -57t-73 -19q-43 0 -68.5 25.5t-30.5 76.5q-2 32 6 62t26.5 53.5t47.5 37.5t69 14q11 0 19 -1t9 -6q0 -8 -13 -13t-25 -5q-24 0 -41 -12t-27.5 -31t-14.5 -43
t-2 -47q3 -39 22 -62.5t44 -23.5q21 0 45 22t48 63q-3 4 -7.5 11t-9 15.5t-8 16.5t-4.5 14q0 5 9.5 11.5t25.5 6.5q14 0 17 -6.5t5 -12.5q24 50 46 110t42.5 123.5t40 127t38.5 120.5q-71 -53 -142 -84t-122 -31q-23 0 -40 7.5t-25 24.5q-1 5 9 11.5t27 6.5q9 0 14 -4
t9.5 -8.5t10.5 -8t17 -3.5q22 0 53.5 11.5t67 32t72.5 47.5t70 58q29 75 57.5 119.5t64.5 44.5q23 0 24 -20t-13 -41t-33.5 -44.5t-38.5 -49.5t-27 -54q39 49 68 72.5t57 23.5q38 0 41 -41q2 -23 -4.5 -55t-21 -67t-36.5 -70t-51 -65q31 -12 53.5 -37.5t30.5 -58.5zM455 408
q-6 -20 -12 -41t-15 -41q15 12 41 17.5t45 5.5q24 27 43 60.5t31.5 66.5t18.5 62.5t5 49.5l-3 18q-1 4 -2 7q1 0 -13 -16t-36.5 -43.5t-50 -65t-52.5 -80.5zM469 318q-3 -2 -10.5 -8.5t-12.5 -14.5q13 5 22 12.5t20 14.5q-6 0 -9.5 -0.5t-9.5 -3.5zM452 -61q30 12 57 36.5
t46.5 57.5t29.5 72t7 80q-2 18 -6 37.5t-12.5 37t-20.5 31.5t-28 23q-29 -22 -60 -36.5t-55 -14.5q-25 -74 -51 -141.5t-54 -119.5q50 -70 112 -70q9 0 18 2.5t17 4.5z" />
    <glyph glyph-name="C" unicode="C" horiz-adv-x="384" 
d="M405 202q-16 -24 -38 -51t-46 -53.5t-47 -50.5t-41 -42q-46 -45 -82 -64t-65 -19q-38 0 -56 26t-20 71q-2 50 13 120.5t41.5 146t62.5 149t76.5 130t84 88.5t84.5 25q7 -1 19 -6.5t25 -19.5t25 -38t19 -62q1 -11 -2.5 -15t-9 -4t-10.5 3t-5 6q-13 57 -33 84t-40 27
q-23 0 -54.5 -33.5t-65 -88t-66 -123t-58 -138t-40 -134t-13.5 -110.5q1 -34 12 -55t26 -21q19 0 55.5 26.5t78 66.5t82 86.5t67.5 86.5z" />
    <glyph glyph-name="D" unicode="D" horiz-adv-x="783" 
d="M114 105q-21 -21 -29.5 -51.5t-6.5 -61.5q2 -37 19 -61t42 -24q23 0 51 27t57 76q-4 14 -7.5 27.5t-4.5 27.5v16t3.5 16t12 12t24.5 5t16 -7q0 -3 -0.5 -6t-1.5 -7q22 49 42.5 104t40.5 112t39 112.5t39 106.5q-35 -25 -71 -46t-71 -36.5t-67.5 -24t-58.5 -8.5
q-23 0 -42 9t-20 25q-1 5 9.5 10.5t25.5 5.5q9 0 14 -4t8.5 -8.5t9 -8t16.5 -3.5q22 0 55.5 12.5t70.5 33t74.5 47.5t69.5 56q15 37 30 67t31 51.5t32.5 33.5t35.5 12q8 0 15.5 -3t8.5 -13q0 -13 -9 -31t-23.5 -38t-33 -40t-37.5 -38l-32 -86q66 80 114.5 112t89.5 32
q37 0 53.5 -25t18.5 -67q1 -24 -2.5 -57t-14 -77t-29 -100t-47.5 -125q-29 -68 -61.5 -123t-68 -94t-74 -60.5t-80.5 -21.5q-41 0 -71 20t-50 50q-32 -45 -71.5 -65.5t-78.5 -20.5q-44 0 -68 26t-26 71q-2 31 6.5 61.5t27 55t48.5 40t72 15.5q11 0 18.5 -1t7.5 -6
q0 -8 -10.5 -12t-25.5 -7t-30.5 -7t-24.5 -13zM591 563q-19 -19 -38 -43.5t-38 -50.5t-37.5 -53.5t-34.5 -52.5l-4 -7q-32 -92 -65.5 -181t-70.5 -156q15 -39 45.5 -67.5t67.5 -28.5q17 0 41.5 16t51.5 51q40 52 71 109.5t54 114.5t38.5 111t25 98t13.5 76t3 45
q-2 35 -13.5 56.5t-27.5 21.5q-14 -3 -34.5 -17.5t-47.5 -41.5z" />
    <glyph glyph-name="E" unicode="E" horiz-adv-x="488" 
d="M511 203q-24 -56 -55.5 -109t-70.5 -94.5t-85.5 -67t-100.5 -25.5q-39 0 -73.5 14.5t-60 42t-40.5 68t-15 92.5q0 66 24 128t84 110q30 24 69 42t87 28q-4 10 -7.5 20.5t-5.5 21.5q-44 -10 -97 -16t-118 -6h-23.5t-12.5 7t13 13t27 6q8 0 16 -0.5t17 -0.5q54 0 96.5 6
t76.5 14q0 38 11.5 75t33.5 66t55 46.5t76 17.5q58 0 58 -49q-2 -16 -12.5 -37.5t-31.5 -44t-53.5 -44t-79.5 -37.5q3 -14 7.5 -26.5t9.5 -24.5q10 2 20 2h19q42 0 59.5 -11t17.5 -23q0 -14 -21 -26t-52 -12q-30 0 -50.5 10t-37.5 31q-61 -10 -103.5 -37.5t-69 -65.5
t-38.5 -82.5t-12 -88.5q0 -48 13.5 -86t35 -64.5t50 -40.5t58.5 -14q42 0 83.5 29t77 71.5t63.5 92.5t45 92zM375 664q-19 -11 -31.5 -27t-20 -36t-10.5 -42.5t-3 -44.5q35 15 59 34t38.5 37.5t20.5 36t6 29.5q0 10 -6 17.5t-17 7.5q-5 0 -13.5 -2.5t-22.5 -9.5zM389 405
q-9 9 -41 9q8 -10 19.5 -15.5t23.5 -5.5q0 1 1 2t1 3t-1 3t-3 4z" />
    <glyph glyph-name="F" unicode="F" horiz-adv-x="558" 
d="M99 -114q-26 9 -43 33t-20 60q-3 31 4.5 62t25.5 55.5t47 39.5t71 15q11 0 18.5 -1t8.5 -6q1 -8 -12 -13t-26 -5q-24 0 -41 -12.5t-27 -32t-14 -43.5t-2 -46q3 -37 20.5 -61t43.5 -24q29 0 57 32.5t54.5 84t50.5 116.5t45 130q-35 0 -56 -6t-19 -31q1 -6 2.5 -14t5.5 -16
q1 -7 -9.5 -14t-25.5 -7t-19.5 12.5t-5.5 21.5q-2 25 7.5 41t27.5 24.5t44 11t57 2.5q17 60 36 120t38 114q-71 -53 -141 -84t-123 -31q-23 0 -42.5 9t-21.5 25q0 5 10 10.5t25 5.5q9 0 14 -4t9.5 -8.5t10 -8t16.5 -3.5q23 0 55 12t68 32.5t73 47.5t69 57q25 72 54.5 118
t67.5 46q11 0 17.5 -4.5t7.5 -15.5q1 -12 -7.5 -29t-22.5 -36.5t-31.5 -39.5t-34.5 -38q-25 -63 -49 -140t-48 -155q20 -1 42.5 -2.5t42.5 2.5q12 2 17.5 5.5t10 7.5t10 6.5t19.5 2.5q15 0 15 -7q2 -19 -20 -28t-52 -12q-26 -3 -53 -2.5t-42 2.5q-27 -82 -54.5 -152.5
t-59.5 -123t-71.5 -82.5t-90.5 -30q-19 0 -34 4z" />
    <glyph glyph-name="G" unicode="G" horiz-adv-x="525" 
d="M40 -57q-17 12 -23.5 33.5t-6.5 52.5q0 50 17.5 118.5t47 141.5t69 144.5t83 128t89 91.5t87.5 35q18 0 33 -5t27.5 -19t23 -38.5t18.5 -62.5q0 -5 -11 -11.5t-28 -6.5q-14 0 -16 7q-11 57 -30 84t-39 27q-24 0 -56.5 -34t-68 -88.5t-70 -123.5t-62 -138.5t-44.5 -133.5
t-17 -109q0 -34 11 -56.5t25 -22.5q9 0 29 14.5t46.5 38.5t57.5 56t62.5 67t61 71.5t52.5 69.5q-11 0 -25 0.5t-28 0.5q-27 0 -49 -5t-22 -22q0 -7 1 -10q0 -6 -10 -12.5t-27 -6.5q-13 0 -15 5.5t-2 13.5q0 19 15.5 31t39.5 19t53.5 9.5t58.5 2.5h15t22.5 -0.5t21 -2.5
t11.5 -6q-15 -44 -33 -98.5t-38.5 -110.5t-43.5 -109t-48 -94.5t-50.5 -66.5t-51.5 -25q-31 0 -48.5 25t-17.5 57q0 31 16.5 51.5t50.5 20.5q3 0 10 -0.5t14 -1.5t12 -3t5 -6q0 -8 -13.5 -13t-25.5 -5q-6 0 -9 2q-2 -6 -4 -11q-3 -9 -3 -22q0 -19 7 -37t19 -25q0 -4 20 27
q19 30 38 67.5t37 80.5t34.5 88.5t30.5 90.5q-53 -66 -97 -112t-81 -74.5t-66.5 -41t-53.5 -12.5q-23 0 -38 10z" />
    <glyph glyph-name="H" unicode="H" horiz-adv-x="768" 
d="M674 272h-11q-11 0 -22.5 1t-23.5 2q-29 -87 -52 -165.5t-31 -134.5q-3 -21 -1.5 -36t9 -19.5t20.5 4t34 36.5q29 41 71.5 104.5t100.5 151.5l23 -13q-45 -73 -89 -137t-82 -118q-27 -39 -53 -49.5t-44.5 0.5t-27 41t-1.5 72q10 58 28 121t45 146q-36 0 -75 5.5t-77 5.5
q-30 -84 -60 -158.5t-65 -130t-77 -87.5t-95 -32q-8 0 -16.5 1t-15.5 3q-27 9 -43 33t-18 62q-2 31 7 61.5t28.5 54.5t49 39t69.5 15q11 0 18.5 -1t7.5 -6q0 -8 -13 -13t-25 -5q-23 0 -40.5 -12t-29 -31t-16.5 -43t-4 -47q2 -39 20.5 -62.5t43.5 -23.5q30 0 59.5 34t58 88.5
t55 121.5t49.5 133q-38 -8 -65.5 -29t-33.5 -64q-2 -7 -13.5 -12.5t-23.5 -5.5q-9 0 -13 3t-4 6q5 34 19.5 57.5t36.5 39t49 24t58 11.5q20 54 39 109.5t36 105.5q-74 -54 -145 -84.5t-121 -30.5q-23 0 -39.5 7.5t-24.5 24.5q0 5 10 11.5t28 6.5q9 0 13 -4t8 -8.5t9 -8
t16 -3.5q22 0 54 11.5t69 32t75 47.5t73 58q28 74 59.5 119t69.5 45q21 0 22 -20q0 -12 -9 -29t-23.5 -36.5t-32.5 -39.5t-36 -38q-24 -59 -48 -129.5t-50 -143.5q38 0 76.5 -3.5t74.5 -6.5q31 94 60.5 181t49.5 147q1 7 12.5 11.5t24.5 4.5q17 0 17 -9q-10 -30 -23.5 -69
t-29 -83t-31.5 -92t-31 -97q18 -2 31.5 -3t23.5 -1z" />
    <glyph glyph-name="J" unicode="J" horiz-adv-x="554" 
d="M669 737q1 -12 -7 -28.5t-21.5 -35.5t-31.5 -40t-38 -40q-35 -88 -72 -200t-76 -227q7 -2 23.5 -7.5t33 -13t29.5 -15.5t13 -14t-11.5 -11.5t-25.5 -5.5q-6 0 -15 4t-19 10t-20.5 11.5t-17.5 8.5q-26 -70 -50.5 -135t-50.5 -118q-18 -38 -37.5 -63t-39 -40t-39 -21.5
t-37.5 -6.5q-26 0 -46.5 11.5t-34.5 31.5t-22 48t-10 60q-3 68 20 120t64.5 87t95.5 53t112 18h18t19 -1q15 43 30.5 88.5t31 90.5t30.5 88.5t29 82.5q-4 -4 -8 -7t-8 -5q-47 -36 -97 -67.5t-100 -55t-97 -36.5t-86 -13q-15 0 -32 3.5t-31.5 9t-24 12.5t-10.5 15
q0 6 12.5 12t25.5 6q7 0 15.5 -5t18 -11t21 -11t26.5 -5q39 0 91.5 20t107.5 51.5t108 71.5t93 80q32 81 60 121t64 40q8 0 16 -3t8 -13zM260 -124q26 54 53 124t54 148q-14 3 -26.5 4t-25.5 1q-42 0 -82.5 -16.5t-71 -47.5t-48 -76t-14.5 -102q1 -24 7.5 -48.5t16.5 -44
t23.5 -32t28.5 -12.5q17 0 40.5 28.5t44.5 73.5z" />
    <glyph glyph-name="I" unicode="I" horiz-adv-x="472" 
d="M89 -114q-29 9 -46.5 33t-22.5 60q-4 31 1.5 62t22.5 55.5t46 39.5t71 15q11 0 18 -1t8 -6q1 -8 -11.5 -13t-24.5 -5q-24 0 -40.5 -12.5t-26 -32t-12.5 -43.5t0 -46q5 -37 24.5 -61t43.5 -24q30 0 56 30t49 80t44 115t40 134t36.5 137.5t34.5 125.5q-33 -26 -67.5 -47.5
t-68.5 -36.5t-65 -23t-58 -8q-23 0 -42.5 9t-21.5 25q-1 5 8.5 10.5t24.5 5.5q9 0 14.5 -4t10 -8.5t10.5 -8t17 -3.5q22 0 54 12.5t67 33t70.5 47.5t65.5 56q12 36 24 66t26 52t30 34t35 12q22 0 26 -20q1 -12 -6.5 -29t-20.5 -36.5t-29.5 -39.5t-32.5 -38
q-27 -75 -48.5 -156.5t-42.5 -160.5t-44.5 -149.5t-53.5 -124.5t-69 -85.5t-91 -31.5q-8 0 -16.5 1t-16.5 3z" />
    <glyph glyph-name="K" unicode="K" horiz-adv-x="766" 
d="M790 202q-38 -71 -73 -131.5t-67.5 -105t-63 -69.5t-58.5 -25q-38 0 -65.5 30.5t-46 77.5t-28.5 104t-13 110q-26 -61 -52 -112.5t-54.5 -91t-59.5 -66t-68 -36.5q-11 -3 -21 -4t-21 -1q-45 0 -67 27t-22 75q0 32 10.5 62t31 53.5t50.5 37.5t70 14q25 0 25 -7
q0 -8 -12.5 -13t-26.5 -5q-24 0 -42 -12.5t-29.5 -32.5t-17 -44.5t-5.5 -48.5q0 -32 16 -56.5t42 -24.5q30 0 60 30.5t59.5 81t58.5 116t57 134.5t54 136.5t50 123.5q-75 -53 -148.5 -84t-124.5 -31q-23 0 -39.5 7.5t-23.5 24.5q0 5 10.5 11.5t27.5 6.5q9 0 14 -4t9 -8.5
t9 -8t15 -3.5q24 0 58 12.5t71.5 33t76 47.5t71.5 56q35 75 66.5 119.5t69.5 44.5q10 0 14.5 -3t8.5 -13q0 -14 -10 -32t-25.5 -37.5t-35 -39.5t-38.5 -38q-27 -59 -54.5 -129.5t-56.5 -143.5q15 5 31 26t34 49.5t38.5 60t43.5 58.5t48.5 44.5t55.5 17.5q27 0 54 -17t54 -58
q0 -5 -10 -13t-26 -8q-15 0 -16 7q-25 34 -41.5 48.5t-28.5 14.5q-5 0 -7 -1l-6 -3q-19 -13 -36.5 -35.5t-35 -50t-34.5 -56t-36 -52.5t-40 -41t-45 -20q1 -14 3.5 -48t8 -77t14 -89.5t21.5 -85t31.5 -63.5t42.5 -25q15 0 38 23t52 64.5t62.5 99.5t69.5 129z" />
    <glyph glyph-name="L" unicode="L" horiz-adv-x="618" 
d="M77 -263q-32 5 -49.5 31t-17.5 60q0 19 8 42t25 42.5t45 33t68 13.5q27 0 57.5 -6.5t62.5 -20.5q34 63 65.5 140.5t61 158t57.5 159.5t55 146q-83 -57 -156 -89.5t-126 -32.5q-23 0 -39.5 7.5t-23.5 24.5q0 5 10 11.5t26 6.5q9 0 14 -4t9 -8.5t9 -8t16 -3.5q24 0 58.5 13
t73.5 34.5t79 50t75 58.5q31 76 61 116.5t65 40.5q23 0 23 -20q0 -11 -9 -27.5t-23.5 -35.5t-32 -38t-34.5 -35q-30 -70 -61.5 -159.5t-65.5 -182.5t-70.5 -182t-75.5 -158q52 -25 108 -58.5t109.5 -63.5t100.5 -52t83 -23q20 0 32.5 20.5t12.5 44.5q0 15 -7.5 29.5
t-17 26.5t-17 19.5t-7.5 8.5q0 7 12 13t26 6q17 0 29 -10t20 -24t12 -29.5t4 -26.5q0 -20 -7.5 -38.5t-22 -32.5t-35.5 -23t-49 -9q-40 0 -89 19.5t-102 48t-108.5 61.5t-107.5 60q-51 -82 -104 -114t-94 -32h-10.5t-10.5 1zM125 -66q-30 -8 -45.5 -36t-15.5 -58
q0 -15 4 -29t11.5 -25.5t17 -18.5t21.5 -7q19 0 58 34t82 106q-34 17 -63.5 26.5t-53.5 9.5h-8t-8 -2z" />
    <glyph glyph-name="M" unicode="M" horiz-adv-x="1036" 
d="M523 133q24 73 41 126.5t28.5 93t16 69t2.5 53.5q-2 20 -6.5 31.5t-11.5 16.5l4 2q-18 -2 -42 -37t-52 -85.5t-59 -106.5t-61 -100q-25 -71 -51 -129t-56 -99t-65.5 -63.5t-79.5 -22.5t-69 26t-28 71q-3 31 4 61.5t25 55t48 40t72 15.5q11 0 18.5 -1t7.5 -6q1 -8 -12 -13
t-26 -5q-24 0 -41 -12t-27 -31.5t-14 -43.5t-2 -47q2 -37 20 -61t44 -24q29 0 57 30.5t53.5 81t49.5 115.5t46.5 134t43.5 137t41 124q-34 -25 -69.5 -46t-70 -36.5t-66 -24t-58.5 -8.5q-23 0 -42.5 9t-21.5 25q0 5 10.5 10.5t24.5 5.5q10 0 15 -4t9 -8.5t9.5 -8t16.5 -3.5
q22 0 54.5 12.5t69 33t73.5 47.5t68 56q28 74 57 119t67 45q9 0 16 -3t8 -13q1 -13 -7.5 -31t-22.5 -38t-31.5 -40t-35.5 -38q-16 -42 -31.5 -89.5t-31.5 -97.5q24 42 44 70t39 45.5t37.5 24.5t38.5 7q23 0 37 -14t17 -51q1 -17 -0.5 -37.5t-6.5 -44.5q42 77 78.5 125.5
t66.5 75.5t53 37t37 10q43 0 47 -52q2 -30 -8 -82t-26 -117t-36 -136t-37.5 -138t-30 -124.5t-13.5 -94.5q1 -27 16 -27q6 0 25 24t48.5 68t69.5 106t88 138l17 -15q-49 -77 -90 -141.5t-74 -112t-59 -74t-44 -26.5q-17 0 -29.5 9t-14.5 36q-3 38 7.5 95t27 123t37 136
t37.5 134.5t27.5 117.5t7.5 85q-1 14 -2.5 24.5t-8.5 14.5q-10 -5 -25 -15.5t-33 -26t-37.5 -37.5t-38.5 -51q-27 -40 -52 -85.5t-47.5 -92t-41.5 -92t-35 -84.5z" />
    <glyph glyph-name="N" unicode="N" horiz-adv-x="775" 
d="M601 448q-1 17 -9 25q-21 -11 -46 -39t-53.5 -66.5t-59.5 -83t-64 -88.5q-26 -71 -52.5 -129t-57.5 -99t-66.5 -63.5t-79.5 -22.5q-20 0 -33 4q-27 9 -43.5 33t-18.5 60q-2 31 5 61.5t25 55t47.5 40t71.5 15.5q11 0 19 -1t9 -6q0 -4 -3.5 -7.5t-9.5 -5.5t-13 -3.5
t-12 -1.5q-26 0 -43 -12.5t-27.5 -32t-14.5 -43.5t-2 -46q2 -37 19.5 -61t43.5 -24q30 0 58 30.5t54 81t51 115.5t48 134t44.5 137t41.5 124q-70 -53 -140.5 -84t-124.5 -31q-23 0 -42.5 9t-20.5 25q-1 5 9.5 10.5t25.5 5.5q9 0 14 -4t9 -8.5t9.5 -8t16.5 -3.5q22 0 55 12.5
t69.5 33t74 47.5t68.5 56q14 36 28 66t29 52t32 34t36 12q23 0 24 -20q1 -12 -8 -29t-23 -36.5t-31.5 -39.5t-34.5 -38q-23 -56 -43.5 -121.5t-45.5 -135.5q63 85 108.5 126t87.5 41q18 0 29 -10t13 -33q2 -34 -7.5 -79.5t-25 -96.5t-34 -105t-33.5 -103.5t-24 -92.5t-5 -73
q3 -27 16 -27q6 0 25 24t49 68t70.5 106t89.5 138l17 -15q-50 -77 -91 -141.5t-75 -112t-60 -74t-44 -26.5q-17 0 -29 9t-15 36q-4 35 4.5 80.5t23 95.5t32 102.5t32.5 102.5t24 95t7 80z" />
    <glyph glyph-name="O" unicode="O" horiz-adv-x="475" 
d="M321 88q-17 -29 -39 -52t-46 -39.5t-49.5 -25t-49.5 -8.5q-48 0 -77 32.5t-34 109.5q-3 51 11.5 137.5t51.5 189.5q-51 -22 -95.5 -33.5t-79.5 -11.5q-64 0 -76 35q0 6 10 12.5t27 6.5q9 0 14 -4t9.5 -9.5t11 -9.5t19.5 -4q29 0 75 12.5t97 39.5q17 43 39 84.5t47.5 73.5
t54 52t58.5 20q27 0 39 -12q6 1 11.5 1h11.5q37 0 63.5 -27t30.5 -95q3 -55 -8 -120.5t-30.5 -130t-45 -123.5t-51.5 -101zM143 -8q4 -1 7 -1.5t7 -0.5q26 0 57.5 26.5t55.5 68.5q23 39 48 96t45 120.5t31.5 128t8.5 117.5q-3 50 -17 78.5t-37 34.5q1 -20 -12 -42.5
t-35 -45.5t-51 -45t-59 -40q-4 -11 -6.5 -22.5t-7.5 -21t-14.5 -16t-27.5 -6.5q-32 -97 -45 -176t-10 -129q3 -57 20.5 -87t41.5 -37zM258 577q33 33 36 59q-20 -16 -41.5 -43t-34.5 -54q10 9 19.5 18t20.5 20zM282 671q0 -2 -12.5 -9t-20.5 -23q9 9 19 16t20 12q-2 4 -6 4z
" />
    <glyph glyph-name="P" unicode="P" horiz-adv-x="662" 
d="M83 -114q-27 9 -43.5 33t-19.5 60q-3 31 3.5 61.5t24 55t46.5 40t71 15.5q11 0 19 -1t8 -6q1 -8 -12.5 -13t-23.5 -5q-26 0 -43 -12.5t-27 -32t-13.5 -43.5t-1.5 -46q4 -37 22 -61t44 -24q28 0 55 32t52.5 83t49.5 114.5t45 126.5q-16 16 -23 31.5t-9 29.5q-1 14 8.5 22
t32.5 8q14 0 14 -7q0 -3 -0.5 -5.5t-0.5 -6.5q10 48 28 98.5t32 95.5q-69 -53 -139 -84t-124 -31q-23 0 -42 9t-21 25q0 5 10 10.5t25 5.5q9 0 13.5 -4t9 -8.5t9.5 -8t16 -3.5q22 0 54.5 12.5t69 33t73 47.5t67.5 56q14 36 27.5 66t28.5 52t31.5 34t35.5 12q23 0 24 -20
q2 -18 -11 -38t-31.5 -42t-36.5 -45.5t-27 -48.5q95 95 175 95q40 0 61.5 -23t25.5 -65q2 -29 -4.5 -64.5t-22.5 -73.5q-28 -65 -59.5 -107.5t-64 -68.5t-65.5 -36.5t-64 -10.5q-26 0 -47 8t-41 17q-25 -75 -51 -139t-57 -110.5t-68 -72.5t-85 -26q-20 0 -33 4zM442 435
q-13 -40 -25 -79t-24 -81q13 -6 23.5 -13.5t21 -14t22.5 -11t29 -4.5q19 0 40 9.5t43.5 32t46 59t46.5 90.5q31 80 26 136q-3 32 -16.5 49.5t-33.5 20.5q-11 0 -39 -17.5t-60 -45t-60.5 -62.5t-39.5 -69z" />
    <glyph glyph-name="Q" unicode="Q" horiz-adv-x="649" 
d="M590 -168q-19 -27 -47.5 -43.5t-59.5 -16.5q-17 0 -33 5.5t-33 19t-34.5 37t-35.5 58.5q-12 22 -22.5 39t-21.5 29q-5 -2 -10 -2h-10q-38 0 -63 22q-18 -26 -18 -58q0 -7 2 -13.5t2 -13.5q0 -4 -10.5 -11t-25.5 -7t-18 9t-3 20q0 27 10.5 56t39.5 46q-17 34 -17 90
q0 24 4.5 59t14 77.5t24.5 91.5t37 101q-48 -20 -95 -32.5t-83 -12.5q-30 0 -49.5 8.5t-24.5 26.5q0 5 9.5 12t28.5 7q9 0 13.5 -4t8.5 -9.5t10.5 -9.5t19.5 -4q29 0 76 12.5t100 39.5q20 44 44.5 85.5t52 73.5t56.5 51.5t59 19.5q14 0 23 -3.5t15 -8.5q7 1 12.5 1h10.5
q39 0 63.5 -28.5t24.5 -100.5q0 -52 -14 -113t-36 -122q-47 -132 -103 -220t-130 -120q23 -28 45 -70q28 -54 57 -81t46 -27t31.5 19t25 44t16.5 50.5t6 38.5q0 6 9 14t31 8q15 0 15 -7q0 -13 -3 -29t-8.5 -34t-14 -36t-20.5 -34zM308 416q-39 -99 -55.5 -178t-16.5 -129
q0 -26 4 -46.5t10 -36.5q3 0 6 1t7 1q35 0 74 -33q22 11 49 41.5t54 74t53 97t46 111t32 116.5t12 112q0 46 -13 73t-34 35q-1 -18 -15 -40.5t-36.5 -45.5t-52.5 -46t-63 -41q-5 -11 -7.5 -22.5t-8 -21t-16 -16t-29.5 -6.5zM439 572q18 17 28 32t13 27q-23 -16 -46 -43.5
t-38 -53.5q12 9 23 18t20 20zM468 666q-1 0 -29 -28q19 16 37 24q-2 2 -3.5 3t-4.5 1z" />
    <glyph glyph-name="R" unicode="R" horiz-adv-x="716" 
d="M740 633q13 -11 18.5 -29t7.5 -38q2 -29 -5.5 -64t-25.5 -74q-27 -62 -58 -105t-63.5 -69t-65 -37.5t-62.5 -11.5q9 -34 16 -77.5t15.5 -90t20 -91.5t29 -80.5t43 -57t61.5 -21.5q7 0 12.5 -2.5t5.5 -6.5q1 -7 -11 -12.5t-25 -5.5q-47 0 -79.5 24.5t-54.5 64t-36 89.5
t-23 100.5t-16 96.5t-15 79q-5 0 -16.5 6t-19.5 10q-27 -77 -54.5 -140.5t-59.5 -110t-70 -72t-85 -25.5q-41 0 -67 24.5t-29 74.5q-2 31 6 61.5t26.5 54.5t48 39t69.5 15q11 0 18.5 -1t8.5 -6q1 -8 -12 -13t-26 -5q-23 0 -40 -12t-27.5 -31t-15.5 -43t-3 -47
q2 -39 21 -62.5t44 -23.5q28 0 56 32t54 83t50.5 114.5t46.5 126.5q-12 14 -19.5 29.5t-8.5 29.5t7.5 23t32.5 9q12 0 12 -7q1 -3 0.5 -5.5t-0.5 -6.5q17 50 33.5 99.5t30.5 94.5q-36 -27 -72.5 -48.5t-70.5 -36t-65 -22.5t-56 -8q-23 0 -39.5 7.5t-24.5 24.5q-1 5 9 11.5
t27 6.5q9 0 14 -4t8.5 -8.5t9 -8t16.5 -3.5q22 0 54 11.5t68.5 32t74 47.5t71.5 58q27 74 57.5 119t66.5 45q23 0 24 -20q1 -18 -12.5 -38t-32 -42t-37 -45.5t-27.5 -48.5q97 95 176 95q40 0 60 -21zM511 232q19 2 40 13t43 33.5t44.5 58t44.5 86.5q18 38 25 71.5t5 59.5
q-5 69 -51 75q-21 0 -63 -32q-52 -41 -83 -80.5t-50 -79t-31.5 -79.5t-27.5 -83q5 0 10.5 2t9.5 2q13 0 20.5 -7.5t14.5 -17t15.5 -17t24.5 -7.5q3 0 5 1t4 1z" />
    <glyph glyph-name="S" unicode="S" horiz-adv-x="582" 
d="M504 689q11 -5 17.5 -17t7.5 -28t-7 -33.5t-22 -34.5t-31.5 -33t-36.5 -29q4 -46 14.5 -93t22 -94.5t21.5 -94.5t12 -93q3 -68 -14 -118.5t-46.5 -83.5t-67 -49.5t-75.5 -16.5q-33 0 -66 12.5t-60.5 39.5t-45.5 70t-21 104q1 37 12.5 67.5t34 52t57.5 33t85 11.5
q13 -3 13 -7q0 -10 -13 -15t-26 -5q-3 0 -6.5 1t-6.5 1q-23 0 -40.5 -11t-29.5 -29t-18.5 -41t-7.5 -48q2 -54 17.5 -93.5t38 -65t49.5 -38t53 -12.5q27 0 51.5 18t42.5 49t28 73t8 90q-2 42 -10.5 86.5t-19 89t-21 88.5t-16.5 87q-41 -26 -85 -45.5t-87 -32.5t-80.5 -20
t-64.5 -7q-24 0 -41.5 6t-17.5 14q0 5 11 11.5t25 6.5q8 0 12.5 -2t8 -4.5t9 -4.5t14.5 -2q19 0 54 7.5t76.5 22t84.5 35t78 47.5q-4 87 24 136t74 49q16 0 28 -7zM432 556q18 18 31 38.5t12 40.5q-2 25 -16 34q-2 -5 -6.5 -17.5t-9 -28t-8 -33.5t-3.5 -34zM463 671
q-2 0 -2 -1z" />
    <glyph glyph-name="T" unicode="T" horiz-adv-x="541" 
d="M919 691q-12 -53 -50.5 -77t-94.5 -31q-54 -6 -117 0.5t-129 18.5q-21 -78 -47 -162t-56 -164t-64 -151.5t-72.5 -125.5t-80.5 -85.5t-88 -31.5q-42 0 -67 24.5t-28 72.5q-2 31 6.5 61.5t27 55t48.5 40t72 15.5q11 0 19 -1t8 -6q0 -4 -3.5 -7.5t-9.5 -5.5t-13 -3.5
t-12 -1.5q-25 0 -42.5 -12.5t-28 -32t-15 -43.5t-3.5 -46q2 -37 19.5 -61t42.5 -24q30 0 62.5 36t64.5 95.5t63 134.5t59 153.5t51.5 153t41.5 132.5q-47 7 -92 17t-84 18t-71 12.5t-53 1.5q-22 -2 -32.5 -24.5t-6.5 -49.5q3 -17 12.5 -31t21 -24.5t21.5 -16.5t15 -6
q1 -4 -2.5 -8t-8.5 -7.5t-12 -6t-14 -3.5q-17 -2 -31.5 6t-25.5 21.5t-18 29t-9 29.5q-3 20 1 39.5t16.5 36t34 27.5t54.5 15q25 3 58 0.5t71 -9t80 -16t84 -19.5q5 6 12 14t26 10q6 1 11 0t7 -5q0 -3 -4 -12t-6 -14q64 -14 124.5 -21.5t107.5 -2.5q39 5 64.5 20t32.5 46
q1 5 12 11.5t23 8.5q17 1 17 -8z" />
    <glyph glyph-name="U" unicode="U" horiz-adv-x="745" 
d="M496 159q-76 -148 -141 -222.5t-131 -74.5q-25 0 -36 14.5t-11 46.5q0 26 6.5 63.5t17 81.5t24.5 93.5t29 99t30 98.5t28 92q-39 -37 -77 -67t-72.5 -51t-65 -32t-53.5 -10q-15 1 -24.5 3.5t-9.5 12.5q0 5 12.5 12t25.5 7q8 0 9.5 -1t1 -2.5t0 -3t6.5 -1.5q19 -1 52.5 19
t71.5 51t77 69.5t70 75.5q26 98 59.5 143t62.5 44q9 -1 16 -4.5t6 -17.5q0 -14 -8 -34t-20 -42t-28 -44.5t-33 -42.5q-17 -46 -35.5 -102t-36.5 -115.5t-34 -118t-28.5 -110t-19.5 -91.5t-7 -62q0 -41 16 -49l-1 -1q23 6 53 39.5t63 85.5t68.5 117t70.5 136t68 142t61 135
l53 -2q-25 -68 -54.5 -148t-58 -163.5t-53.5 -166t-41 -154.5q-2 -13 -1.5 -19.5t2.5 -9t5.5 -1t6.5 4.5q5 4 25.5 28t54 67t78.5 103t99 136l16 -15q-57 -77 -102.5 -140.5t-81.5 -109.5t-63 -72.5t-45 -28.5q-17 -2 -29 6.5t-13 35.5q-1 17 3 40.5t12.5 56t22 74.5
t31.5 96z" />
    <glyph glyph-name="V" unicode="V" horiz-adv-x="644" 
d="M948 725q-5 -5 -12.5 -6.5t-14.5 -1.5q-18 0 -36 6.5t-35 6.5q-57 0 -104.5 -39t-88.5 -102t-77.5 -144t-72.5 -166t-72.5 -166t-77.5 -144t-88 -102t-104 -39q-8 0 -13 2t-6 7q0 2 4 4q40 52 64 134.5t38 179.5t22.5 199t17.5 193q-68 -78 -129 -121.5t-110 -43.5
q-14 0 -31 7t-18 18q0 5 11 12t26 7q8 0 12 -3t6.5 -6l5 -6t8.5 -3q19 0 48.5 20.5t62 52.5t64 72t55.5 78q6 37 14 72.5t19.5 63t27 44t35.5 16.5q8 0 16 -3.5t10 -20.5q1 -15 -5 -35.5t-16 -43t-23 -46t-26 -43.5q-9 -60 -15.5 -127.5t-13 -138t-14 -141t-19.5 -136
t-29.5 -122.5t-43.5 -100q38 25 72 77t67 119.5t65.5 145t67.5 155t73 148.5t82 126t95.5 87.5t112.5 32.5q6 0 23 -2t35 -5t32.5 -8t14.5 -11t-12 -10z" />
    <glyph glyph-name="W" unicode="W" horiz-adv-x="822" 
d="M1121 774q4 -3 4 -6q0 -4 -13 -11t-24 -7q-19 0 -38 7.5t-36 7.5q-55 0 -100 -41t-83.5 -109t-72 -155t-66.5 -179t-67 -181.5t-72.5 -161.5t-84 -119.5t-101.5 -56.5q-11 0 -18.5 1t-8.5 6q0 2 3 4q25 31 47 86t40 118.5t30.5 129.5t17.5 120q-31 -72 -65.5 -143
t-73.5 -128t-83.5 -92.5t-96.5 -35.5q-16 0 -16 7q0 4 2 6q27 35 46 84t33 107t23 123t16 132t13 133t12 127q-67 -78 -128 -121.5t-111 -43.5q-15 0 -31 6.5t-16 16.5q-1 7 10 14t25 7q8 0 12.5 -3t7 -6l5 -6t7.5 -3q18 0 47.5 20t62 52.5t64.5 72t57 78.5q6 37 14 72.5
t19.5 63t26.5 44t35 16.5q8 0 16.5 -3.5t10.5 -20.5q1 -15 -5 -36t-16 -43.5t-22.5 -45.5t-24.5 -43q-17 -92 -26 -198t-21 -210.5t-32.5 -197.5t-59.5 -159q39 26 67.5 60.5t55 81t55 107t67.5 139.5q1 5 8.5 9t17 5.5t17 0t8.5 -6.5q-6 -72 -12.5 -137.5t-16.5 -123.5
t-26 -108.5t-43 -92.5q38 25 71 80.5t64 129.5t61 160.5t62 173.5t67.5 167.5t77.5 142.5t91.5 99t110.5 37q23 0 49 -4.5t54 -15.5z" />
    <glyph glyph-name="X" unicode="X" horiz-adv-x="659" 
d="M682 198q-12 -28 -29 -65.5t-37.5 -77t-44 -78t-48.5 -69t-51 -49t-52 -18.5q-30 0 -54 20t-43.5 57t-36.5 90.5t-33 121.5q-41 -78 -81.5 -147t-84 -121t-89.5 -82.5t-97 -30.5q-10 0 -22 1t-12 8q0 6 13 11t23 5q5 0 9.5 -1t9.5 -1q36 0 74 35.5t77.5 94.5t80.5 135.5
t83 159.5q-7 44 -17 95t-23 102t-28 97.5t-31 82.5t-33 57.5t-34 21.5q-30 0 -75 -58q-5 -7 -16 -10.5t-23 -3.5q-13 0 -13 8q0 3 1 4q38 49 71.5 71.5t62.5 22.5q40 0 69.5 -33.5t52 -90t40.5 -131.5t37 -158q48 93 98 180t104 154.5t113.5 108.5t126.5 41q39 0 87 -17
q4 -3 4 -6q0 -8 -12.5 -13t-24.5 -5q-15 0 -30.5 6.5t-30.5 6.5q-57 0 -110.5 -45t-105 -118t-101.5 -164.5t-98 -184.5l-6 -13q16 -69 33 -131t35 -108t36.5 -73t37.5 -27q16 0 36.5 19t42.5 50t44 69.5t41.5 77.5t35.5 74.5t25 59.5z" />
    <glyph glyph-name="Y" unicode="Y" horiz-adv-x="709" 
d="M602 282q-8 -32 -18 -79.5t-22 -103t-25 -115t-26 -115t-26 -103.5t-25 -81q-15 -41 -31.5 -67t-33 -41t-34 -20.5t-33.5 -5.5q-18 0 -33 8.5t-26 22t-17 30.5t-6 34q0 34 25.5 51.5t60.5 17.5q10 0 23 -1t13 -8q0 -6 -13 -12t-24 -6q-6 0 -8 2q-3 0 -4.5 0.5t-2.5 0.5
h-2q-14 -9 -14 -35q0 -29 14 -48t33 -30q20 13 40.5 61t40.5 116t38.5 148t33.5 158q-29 -50 -63.5 -87.5t-70.5 -62t-69.5 -37t-60.5 -12.5q-25 0 -37.5 16t-12.5 51q0 20 3.5 46t12.5 60q26 104 52 206.5t54 204.5q-35 -37 -69.5 -67.5t-67 -52t-62 -33t-52.5 -11.5
q-17 0 -32 7.5t-15 17.5q0 6 11.5 12.5t26.5 6.5q8 0 11.5 -2.5t6 -5.5t5 -5.5t7.5 -2.5q19 0 51.5 21t69 54t72 73t62.5 78q15 68 31 106.5t31 57.5t28 23.5t22 4.5t16 -4.5t7 -16.5q0 -14 -7.5 -34t-19 -42.5t-26.5 -46t-30 -44.5q-15 -55 -30.5 -111.5t-30.5 -115.5
q-14 -51 -28.5 -106t-27 -106t-20.5 -93.5t-8 -68.5q0 -20 5 -34t13 -18l-3 -1q14 4 39.5 20t55 40.5t58.5 58t50 72.5q7 14 19.5 38.5t25.5 53t24.5 58t16.5 55.5h58z" />
    <glyph glyph-name="Z" unicode="Z" horiz-adv-x="629" 
d="M797 -133q2 0 4.5 1t4.5 1q7 0 11.5 -2.5t4.5 -4.5q0 -25 -11 -42t-27.5 -27.5t-36.5 -15.5t-38 -5q-45 0 -98.5 18.5t-111.5 47.5t-118 63.5t-117 66.5v-1q-37 -44 -77 -64.5t-75 -20.5q-45 0 -69.5 26.5t-24.5 61.5t30 60.5t88 25.5q43 0 115 -36q34 55 68 126
t66.5 146t64 150t61.5 138q-63 -28 -134 -43t-137 -15q-33 0 -66.5 5t-60 14t-43 21t-16.5 26q0 5 11.5 10.5t25.5 5.5t16 -4q18 -27 60.5 -40t96.5 -13q65 0 137 18.5t130 53.5q67 134 126 134q22 0 22 -16q0 -17 -9.5 -32.5t-24.5 -30t-32.5 -28.5t-32.5 -29
q-35 -65 -70 -147.5t-71 -167.5t-73.5 -164t-77.5 -138q25 -14 59 -34.5t72.5 -42.5t79 -44.5t79.5 -40t73 -28.5t60 -11q22 0 37 12t20 40q2 6 10 10.5t19 5.5zM213 -34q8 10 16 22q-36 17 -64 30t-45 13q-28 0 -37.5 -15t-9.5 -36q0 -13 4.5 -26t12.5 -23.5t18 -17
t21 -6.5q17 0 40.5 16.5t43.5 42.5z" />
    <glyph glyph-name="period" unicode="." horiz-adv-x="127" 
d="M10 108q1 15 10 22.5t19.5 7.5t19 -7.5t8.5 -22.5q-1 -14 -9.5 -22t-19 -8t-19.5 7t-9 23z" />
    <glyph glyph-name="zero" unicode="0" horiz-adv-x="477" 
d="M403 647q30 -10 45 -31.5t18 -56.5q3 -32 -3 -71t-19 -81.5t-32.5 -87t-42.5 -87.5q-68 -129 -135 -185.5t-121 -56.5q-44 0 -69.5 30t-31.5 96q-5 56 5.5 121.5t33 130.5t56 125.5t74.5 107t88.5 74.5t98.5 28q3 0 15 -1t25.5 -3.5t24.5 -7t12 -11.5t-12 -12.5t-25 -5.5
q-15 0 -27.5 8t-28.5 8q-20 0 -42.5 -11.5t-45.5 -32.5q-50 -44 -89.5 -108t-65.5 -134.5t-37.5 -140t-6.5 -123.5q5 -51 23 -81t41 -30q19 0 48.5 26t63 69t66 98.5t58 114.5t40 116t10.5 104q-3 35 -19.5 58t-48.5 23q-8 0 -18.5 -2.5t-20.5 -2.5q-15 0 -17 7
q0 6 7.5 10.5t19 7t24.5 4t24 1.5q21 0 37 -4z" />
    <glyph glyph-name="one" unicode="1" horiz-adv-x="252" 
d="M286 715q2 0 4.5 0.5t4.5 0.5q13 0 13 -7q1 -1 0 -1t-1 -1q-32 -95 -64.5 -183.5t-63.5 -174t-60.5 -170t-56.5 -169.5q-1 -6 -12.5 -10.5t-22.5 -4.5q-17 0 -17 7q54 177 119.5 355t125.5 344q2 5 11 9t20 5z" />
    <glyph glyph-name="two" unicode="2" horiz-adv-x="541" 
d="M506 83q14 0 19 -1.5t6 -7.5q-11 -47 -42 -65.5t-73 -18.5q-27 0 -57 6t-60 15.5t-59.5 21.5t-56.5 23q-41 -34 -82 -56.5t-72 -22.5q-26 0 -43 14.5t-19 34.5q-2 17 5 34t21.5 31t36.5 23t52 9q10 0 19 -0.5t19.5 -3t24.5 -7t35 -13.5q49 49 93 112t77 129.5t50.5 131
t13.5 116.5q-5 50 -31.5 80t-68.5 30q-29 0 -42.5 -15t-22.5 -33t-19 -33t-32 -15q-8 0 -13 2t-5 6q-2 27 12.5 48t37.5 35.5t51 22t53 7.5q32 0 56 -9.5t40.5 -26t25.5 -39.5t11 -49q5 -55 -14 -123t-54.5 -138.5t-83.5 -137t-101 -117.5q22 -9 47.5 -20.5t51.5 -21
t51.5 -16t48.5 -6.5q24 0 41 11t23 37q2 5 10 9.5t19 6.5zM70 12q20 11 40 26t40 32q-35 17 -50.5 21.5t-26.5 4.5q-16 0 -26.5 -5.5t-16.5 -14.5t-8.5 -19.5t-1.5 -19.5q2 -12 8.5 -22t17.5 -10q5 0 10.5 2t13.5 5z" />
    <glyph glyph-name="three" unicode="3" horiz-adv-x="419" 
d="M314 449q44 -21 67 -58t27 -83q2 -27 -4.5 -61.5t-22.5 -70.5t-42.5 -70t-63.5 -60.5t-86 -43t-109 -16.5q-58 0 -94 26t-41 78q0 6 11 12t25 6q6 0 11 -2t5 -6q5 -47 34 -67.5t71 -20.5q62 0 111 28t82 70.5t49 92.5t12 94q-2 27 -12 52.5t-27.5 45.5t-42.5 32t-57 12
q-19 0 -41 -9t-41 -9q-16 0 -16 9q1 4 8.5 8t17.5 8t20.5 6.5t17.5 4.5q26 12 46 31.5t33.5 42.5t19.5 47.5t4 45.5q-5 24 -18 40t-41 16q-6 0 -14 -1t-15 -1q-14 0 -17 7q-1 6 6.5 10t18.5 7t22.5 4t19.5 1q42 0 64.5 -20t25.5 -53q4 -44 -18.5 -89.5t-71.5 -80.5
q19 0 35 -4.5t31 -10.5z" />
    <glyph glyph-name="four" unicode="4" horiz-adv-x="451" 
d="M419 533q9 0 15.5 -1.5t6.5 -6.5q-20 -71 -36.5 -125.5t-30 -99.5t-24.5 -82.5t-20 -74.5t-16 -76.5t-14 -87.5q-2 -5 -12 -10.5t-25 -5.5q-16 0 -16 9q6 45 13 83t16 74t19 72t22 77q-2 -1 -10 -1q-108 -8 -169 -13.5t-92.5 -8.5t-42.5 -4.5t-18 -1.5q-4 0 -14.5 3.5
t-11.5 10.5q-1 8 19.5 22.5t53 37.5t72 56.5t77.5 80t69 107.5t46 140q1 4 11 10t22 6q10 0 15 -3t5 -6q-14 -71 -41 -127t-60.5 -100t-70 -77.5t-69 -58.5t-58.5 -43t-38 -31l2 -2q3 1 20 3.5t53 5.5t93 7t140 10q4 0 12.5 23.5t19 57t20.5 70.5t18 65q1 5 9.5 9.5
t19.5 6.5z" />
    <glyph glyph-name="five" unicode="5" horiz-adv-x="562" 
d="M536 701q15 0 15 -7q1 -7 -10 -13t-25 -6h-64t-46.5 -0.5t-46 -0.5h-62.5q-16 -26 -42.5 -82.5t-56.5 -123.5q50 0 98 -8t86.5 -26.5t63.5 -47.5t29 -71q2 -31 -10 -64q-18 -57 -53 -101.5t-78.5 -75t-92 -46.5t-91.5 -16q-24 0 -48.5 5t-44 13.5t-32.5 20t-14 23.5
q-1 6 8 13t27 7q6 0 15 -9t23.5 -19.5t36 -19.5t52.5 -9q16 0 42 8.5t54.5 25t57.5 40t51 53.5t34.5 65t9.5 75q-3 35 -23.5 61t-50.5 43.5t-67.5 26t-75.5 8.5q-10 0 -20.5 -1t-20.5 -1q-13 0 -17.5 1t-5.5 7q20 45 39.5 87.5t36.5 77.5q13 28 21 45t15 26t14.5 11.5
t20.5 2.5q42 0 70.5 0.5t53.5 0.5t53.5 0.5t70.5 0.5z" />
    <glyph glyph-name="six" unicode="6" horiz-adv-x="421" 
d="M396 716q14 0 14 -7q1 -6 -10.5 -12.5t-25.5 -6.5q-54 0 -99 -24.5t-81 -65t-62 -91.5t-42 -105q44 19 88 19q61 0 103 -42t49 -118q4 -53 -10 -96.5t-40.5 -74.5t-63 -48.5t-75.5 -17.5q-19 0 -38.5 6.5t-33.5 18.5q-23 19 -37.5 53t-19.5 87q-5 49 2.5 107t26.5 116.5
t50.5 112.5t76 96t101.5 67.5t127 25.5zM213 380q-14 8 -27 12.5t-28 4.5q-18 0 -36 -5.5t-41 -20.5q-13 -48 -16 -92t0 -83q7 -75 36.5 -109t62.5 -34q27 0 49.5 18.5t37.5 47.5t22.5 64.5t4.5 70.5q-4 42 -20.5 74.5t-44.5 51.5z" />
    <glyph glyph-name="seven" unicode="7" horiz-adv-x="451" 
d="M340 690q23 3 41.5 6t32.5 3q11 0 18.5 -2.5t7.5 -7.5q2 -6 -7 -13h-2q-16 -14 -47 -42.5t-69 -70t-78.5 -95.5t-75 -118t-58.5 -138t-29 -155q0 -7 -10.5 -12t-23.5 -5q-8 0 -14 1.5t-6 5.5q5 82 29 156t58.5 139t75.5 119.5t79.5 97t70.5 72.5t50 45q-16 -3 -42.5 -8
t-58.5 -10t-66.5 -8.5t-65.5 -3.5q-50 0 -88 12.5t-51 44.5q-1 5 9 12.5t26 7.5q14 0 17 -7q9 -25 40 -34t73 -9q40 0 84.5 6t79.5 11z" />
    <glyph glyph-name="eight" unicode="8" horiz-adv-x="411" 
d="M347 702q21 -17 34.5 -46t17.5 -71q4 -47 -3.5 -86t-24 -72t-40.5 -60.5t-52 -51.5q18 -27 30.5 -55t15.5 -60q4 -49 -10.5 -85.5t-40.5 -60.5t-59 -36t-65 -12q-23 0 -46.5 7.5t-43 23.5t-33 41t-16.5 61q-3 31 8.5 68t32 73t47 66.5t54.5 50.5q-27 33 -47 68.5
t-24 74.5q-4 44 11.5 79.5t42.5 60t61 37.5t68 13q22 0 43.5 -7t38.5 -21zM270 146l2 22t0 22q-2 26 -11.5 49.5t-23.5 46.5q-14 -9 -30.5 -19.5t-33.5 -10.5q-13 0 -15 7q0 3 6.5 8.5t16 12t20.5 13.5t19 13q-11 16 -22.5 31.5t-23.5 30.5q-21 -23 -41.5 -49t-36.5 -54
t-25 -57t-6 -57q5 -58 33.5 -89.5t66.5 -34.5q36 0 66.5 30t38.5 85zM287 372q30 38 47.5 88t11.5 116t-37 97.5t-67 31.5q-19 0 -39.5 -11.5t-36.5 -31.5t-25.5 -48.5t-6.5 -61.5q3 -35 20 -66.5t40 -60.5q35 16 67 16q11 0 19.5 -3t9.5 -8q0 -7 -13 -12.5t-25 -5.5
q-4 0 -8 2t-6 2q-11 0 -27 -12q13 -15 25 -30.5t24 -29.5q7 6 14 13t13 15z" />
    <glyph glyph-name="nine" unicode="9" horiz-adv-x="422" 
d="M353 692q21 -19 36.5 -52t20.5 -86q4 -48 -3 -105.5t-26 -116t-50 -114t-74 -98t-99.5 -68.5t-125.5 -26q-20 0 -21 7q-1 8 12.5 14t25.5 6q52 0 97 24t81.5 63.5t63 91t43.5 107.5q-20 -8 -38.5 -13.5t-37.5 -5.5q-75 0 -117.5 43t-49.5 121q-5 50 9.5 92.5t41.5 73.5
t63 48.5t75 17.5q44 0 73 -24zM342 374q11 45 14.5 88t0.5 81q-7 77 -36 112t-62 35q-27 0 -49 -17t-38 -45t-23.5 -63.5t-4.5 -71.5q3 -29 12 -55.5t24.5 -47t37 -32.5t47.5 -12q16 0 36 6t41 22z" />
    <glyph glyph-name="parenleft" unicode="(" 
d="M165 484q-23 -72 -34 -147.5t-4 -146.5q5 -60 24.5 -107.5t55.5 -74.5q3 -2 3 -4q0 -6 -10 -12t-25 -6q-23 0 -40.5 21t-30.5 51.5t-21 65t-10 62.5q-5 58 1.5 121.5t22.5 125t41 117.5t57 98.5t71 67.5t82 25q10 0 21 -2t11 -7q1 -7 -11.5 -12.5t-23.5 -5.5q-4 0 -7 0.5
t-7 0.5q-22 0 -45.5 -19t-45.5 -51t-41.5 -74t-33.5 -87z" />
    <glyph glyph-name="parenright" unicode=")" 
d="M545 737q38 -29 59 -80t26 -114q5 -60 -1.5 -124.5t-22.5 -126.5t-41 -118t-57 -98t-70.5 -66.5t-81.5 -24.5q-9 0 -20 1.5t-11 6.5q-1 8 11 13.5t22 5.5q3 0 6.5 -0.5t5.5 -0.5q28 0 55.5 24.5t52 65.5t45 94t34 111t19 116t1.5 109q-5 61 -24 110.5t-55 76.5q-4 2 -4 5
q0 5 12 11.5t26 6.5q7 0 13 -4z" />
    <glyph glyph-name="braceleft" unicode="{" 
d="M478 730q7 -3 7 -7q1 -8 -12 -14t-24 -6q-5 0 -8.5 2t-7.5 2q-20 0 -32.5 -19.5t-21.5 -49.5t-16 -66.5t-16 -71t-22 -62.5t-34 -42q11 -11 17 -26.5t8 -33.5q2 -27 -2 -59.5t-9 -66.5t-9 -66.5t-1 -60.5q2 -28 13.5 -47.5t36.5 -24.5q8 -2 9 -6q0 -7 -12.5 -13t-24.5 -6
q-19 0 -32.5 8t-22.5 20.5t-13.5 28.5t-5.5 31q-3 28 0.5 62t8 68.5t8 66.5t1.5 58q-2 13 -6.5 23.5t-10 18t-10 12t-4.5 5.5q0 7 10 12t23 7q12 0 18.5 24t13 60.5t15 79t24 79t40.5 60.5t64 24q10 0 19.5 -1t20.5 -3z" />
    <glyph glyph-name="braceright" unicode="}" 
d="M694 732q35 -7 49.5 -31.5t17.5 -58.5q3 -29 -0.5 -62t-8 -66.5t-8 -65.5t-1.5 -57q1 -13 6 -23.5t10.5 -18t10 -12.5t4.5 -7q1 -5 -8.5 -11t-23.5 -6q-12 -1 -19 -26t-13.5 -61.5t-15.5 -78.5t-24.5 -78t-40.5 -60t-64 -24q-4 0 -12 0.5t-15.5 2t-13.5 3.5t-6 5
q0 7 12 13t24 6q5 0 9.5 -1.5t8.5 -1.5q21 0 33.5 19.5t21 49.5t15 66.5t15 71.5t21.5 63t34 42q-10 10 -14.5 25t-6.5 32q-2 27 1 60t7.5 67t8 67t1.5 60q-2 29 -13.5 48.5t-36.5 24.5q-8 1 -8 7q0 4 4.5 7.5t11.5 5.5t14.5 3t12.5 1z" />
    <glyph glyph-name="comma" unicode="," horiz-adv-x="110" 
d="M38 88q-6 0 -14 4.5t-10 18.5q0 15 8.5 22.5t18.5 7t18 -8t8 -22.5q0 -20 -15.5 -31t-29.5 -16l-4 10q1 1 7.5 2.5t12.5 12.5z" />
    <glyph glyph-name="v.002" unicode="&#xe02f;" horiz-adv-x="292" 
d="M257 158q-23 -8 -44.5 -2.5t-37.5 25.5q-20 -35 -45.5 -69t-44.5 -52q-27 -27 -49.5 -36t-38 -2t-22.5 28.5t-3 55.5q0 1 2 15.5t7 36t12 46t17 45.5t23 35t29 14q6 0 11 -2t5 -5q-29 -90 -42 -141.5t-13 -75.5q0 -16 4 -23q26 21 58.5 66.5t61.5 99.5q-7 16 -10.5 37
t-4 43.5t2.5 44.5t10 42q16 43 40 60t43.5 10.5t28.5 -35t-4 -74.5q-9 -33 -26 -66t-32 -60q17 -41 52 -35q13 3 21.5 11.5t20.5 17t32.5 15.5t58.5 7q76 0 161 -20.5t174 -51.5t179.5 -67t178.5 -67t169.5 -51.5t153.5 -20.5q106 0 157 69q-45 8 -89.5 29.5t-83.5 60.5
q-27 31 -32 51.5t-5 35.5q0 17 11 33t46 16q7 0 19 -4t25.5 -9.5t27 -11.5t23.5 -10q-5 9 -14 31.5t-11 46t9.5 41t48.5 17.5q26 0 48 -14.5t38 -39t25 -57t9 -69.5q0 -38 -7 -67.5t-24 -57.5q6 -1 11.5 -1h10.5q35 1 66 12.5t54.5 29t37 40t13.5 46.5q0 7 -2.5 12.5
t-2.5 12.5q0 3 4 8t10 9.5t13 6.5t13 -1q11 -4 14.5 -13.5t3.5 -19.5q0 -36 -22 -66.5t-58.5 -53t-84 -35.5t-98.5 -13q-66 -79 -211 -91q-87 -2 -180.5 17.5t-189 50.5t-188.5 67.5t-177.5 68t-158 52.5t-128.5 21q-30 0 -43.5 -5.5t-21.5 -13t-16.5 -16.5t-28.5 -15z
M1411 222q-27 6 -29.5 -2.5t8.5 -31.5q10 -22 31.5 -43.5t47 -40t53 -31.5t49.5 -18q12 23 17.5 49.5t5.5 56.5q-8 96 -43 141q-12 16 -21.5 20t-14.5 -0.5t-6.5 -16t2.5 -27.5t6.5 -28.5t6 -25.5t8 -29t11.5 -39q-12 11 -31 22t-38.5 20t-36.5 15.5t-26 8.5zM173 260
q9 19 20.5 47.5t18.5 53.5q5 17 8.5 35t3.5 26q-11 0 -24 -15.5t-20 -33.5q-9 -24 -11 -55.5t4 -57.5z" />
    <glyph glyph-name="a" unicode="a" horiz-adv-x="299" 
d="M321 201q-26 -45 -50 -83t-45 -64.5t-40 -39.5t-36 -8q-23 6 -31 25.5t-8.5 42.5t4 45t7.5 34q-18 -18 -30.5 -31t-23 -22t-21 -13.5t-23.5 -4.5q-27 0 -37.5 18t-9 44t12 54t27 47t37 24t39.5 -14q18 -18 27 -47q6 7 14.5 18t18 21t21 17t23.5 7q15 0 15 -7
q-17 -43 -28 -72.5t-18 -51.5t-9.5 -38.5t-2.5 -32.5q0 -24 7.5 -28t20 5t28.5 29t32 44.5t31 50t26 46.5q1 0 4 -2q2 -2 6.5 -5t11.5 -8zM25 122q0 -12 10 -5.5t23 20t25.5 28t16.5 18.5q-2 11 -6 23.5t-10 18.5t-14.5 2.5t-19.5 -24.5q-11 -20 -18.5 -45t-6.5 -36z" />
    <glyph glyph-name="b" unicode="b" horiz-adv-x="334" 
d="M341 193q-14 -5 -31 -11t-33 -12t-29.5 -10.5t-19.5 -7.5q-9 -20 -16.5 -35t-15.5 -27t-17.5 -21.5t-22.5 -19.5q-25 -20 -44 -21t-28 9.5t-5.5 30.5t22.5 43q15 19 34.5 32t51.5 22q4 9 8 25.5t4 24.5q0 22 -5.5 29.5t-14 6t-19 -11t-20.5 -21.5q-42 -51 -66.5 -91
t-38.5 -70t-21 -50.5t-13.5 -33.5t-15.5 -19t-27 -6q-11 0 -13.5 4.5t-2.5 11.5q0 45 20 126.5t52 179.5q34 103 73 191.5t83 153.5t93 102t102 37q32 0 50.5 -17t18.5 -53q0 -59 -37 -121.5t-93.5 -121.5t-123 -111.5t-125.5 -92.5q-5 -17 -12 -41t-13.5 -49.5t-13 -48.5
t-10.5 -38q21 34 44.5 73t48.5 71.5t51.5 54t53.5 21.5q16 0 24.5 -10.5t11.5 -25.5t1 -32.5t-6 -32.5q23 8 50.5 18t48.5 19zM172 132q-13 -5 -27 -16.5t-23 -23.5q-8 -11 -12 -22t-3.5 -16.5t8 -1.5t22.5 24q14 17 21.5 31t13.5 25zM216 614q-20 -32 -40 -71.5t-39.5 -83
t-37 -89t-32.5 -90.5q57 41 113.5 91.5t101 103t72 104t27.5 94.5q0 23 -10.5 39.5t-27.5 16.5q-23 0 -58.5 -29.5t-68.5 -85.5z" />
    <glyph glyph-name="c" unicode="c" horiz-adv-x="205" 
d="M219 196q-22 -27 -48 -56.5t-53 -54t-53.5 -41t-50.5 -16.5t-36 16.5t-12 44.5q0 36 9.5 70.5t25.5 63t37.5 50.5t46.5 34q10 4 21 5.5t22.5 -1.5t21.5 -11t17 -22q1 -2 0 -5t-3 -6t-5.5 -4t-8.5 3q-6 5 -12 10.5t-12 8.5t-13.5 2.5t-17.5 -6.5q-15 -10 -28.5 -32
t-24 -49t-17 -54.5t-6.5 -48.5q0 -13 4.5 -26.5t12.5 -13.5h7q21 11 44.5 31.5t45.5 44t41 46t31 37.5z" />
  </font>
</defs>
</svg>
